<svg width="93" height="93" fill="none" xmlns="http://www.w3.org/2000/svg">
  <path
    d="M62.284 40.45c2.883-2.91 3.604-6.918 1.608-8.933-1.997-2.016-5.966-1.288-8.849 1.623-2.727 2.753-3.518 6.487-1.906 8.588l-3.763 3.8-.762-.77L30.63 62.917l2.163 2.184 17.984-18.157-.762-.769 3.763-3.799c2.082 1.627 5.78.829 8.507-1.925Zm-12.843 6.548L32.846 63.752l-.882-.89 16.595-16.755.882.89Zm4.689-5.625c-1.643-1.66-.946-5.062 1.554-7.586s5.87-3.228 7.514-1.57c1.643 1.66.946 5.063-1.554 7.587s-5.871 3.228-7.514 1.569Z"
    fill="#242424" />
  <path
    d="M38.266 33.137c-2.879-2.915-6.843-3.644-8.836-1.625-1.994 2.018-1.273 6.031 1.605 8.946 2.723 2.757 6.416 3.557 8.495 1.927l3.758 3.805-.76.77L60.485 65.14l2.16-2.187-17.958-18.182-.76.77-3.758-3.805c1.61-2.104.82-5.843-1.904-8.6Zm6.476 12.985 16.571 16.777-.88.892L43.86 47.014l.88-.892Zm-5.564-4.74c-1.64 1.66-5.006.955-7.503-1.572-2.496-2.528-3.193-5.936-1.552-7.597 1.64-1.66 5.007-.956 7.503 1.572 2.497 2.527 3.193 5.935 1.552 7.596Z"
    fill="#242424" />
  <path
    d="M45.929 7.722c-.228 0-.484-.013-.77-.037a19.907 19.907 0 0 0-.414-.025 11.078 11.078 0 0 0-.55-.012l-.903.012a11.98 11.98 0 0 1-.623.013c-.016 0-.024-.025-.024-.074 0-.049.008-.073.024-.073.252 0 .435-.02.55-.061a.366.366 0 0 0 .231-.233c.05-.122.07-.306.061-.55V1.015c-.016-.245-.048-.425-.097-.539a.366.366 0 0 0-.232-.232c-.114-.05-.285-.074-.513-.074-.016 0-.024-.024-.024-.073 0-.05.008-.074.024-.074l.623.013c.358.016.65.024.879.024.268 0 .537-.012.806-.037.341-.016.594-.024.757-.024.854 0 1.611.16 2.27.477.66.31 1.173.747 1.539 1.31.366.563.55 1.207.55 1.933 0 .783-.196 1.48-.587 2.093A3.963 3.963 0 0 1 47.98 7.22a4.335 4.335 0 0 1-2.051.502Zm-.11-.245c.57 0 1.066-.135 1.49-.404.423-.277.748-.677.976-1.2.236-.521.354-1.15.354-1.884 0-.628-.101-1.223-.305-1.786a3.145 3.145 0 0 0-.977-1.408c-.44-.367-1-.55-1.684-.55-.326 0-.546.06-.66.183-.114.115-.17.318-.17.612v5.507c.007.334.077.575.207.722.138.139.395.208.769.208ZM60.574 8.192a.083.083 0 0 1 .065-.007.131.131 0 0 1 .064.045c.02.014.026.024.016.03-.227.486-.429 1.03-.605 1.633a.244.244 0 0 1-.077.13c-.03.017-.08.015-.15-.006l-5.343-1.572c-.031-.01-.04-.037-.026-.084.014-.047.032-.067.056-.06.234.069.408.098.52.09a.331.331 0 0 0 .277-.162c.071-.098.142-.268.213-.51l1.593-5.437c.069-.235.1-.413.093-.534a.367.367 0 0 0-.158-.289c-.095-.079-.252-.15-.47-.215-.024-.007-.033-.035-.027-.084.014-.047.028-.068.044-.064l5.05 1.486c.062.019.082.063.062.133l-.43 1.557c-.008.024-.035.029-.081.015-.04-.012-.06-.026-.064-.044a1.99 1.99 0 0 0-.423-1.247c-.268-.36-.64-.61-1.117-.75l-.222-.065c-.243-.072-.424-.104-.545-.097a.295.295 0 0 0-.254.13 1.946 1.946 0 0 0-.196.452l-.702 2.395 1.464.431c.399.117.712.133.94.047.23-.085.39-.285.482-.598.009-.031.04-.039.095-.023s.077.044.065.083l-.2.642a10.311 10.311 0 0 0-.282.963l-.175.638c-.011.039-.04.051-.087.038a.23.23 0 0 1-.067-.033c-.011-.02-.014-.038-.01-.054.099-.336.068-.622-.093-.856-.15-.24-.413-.415-.787-.525L57.64 5.39l-.778 2.653c-.091.314-.104.53-.038.652.074.124.267.232.58.324l.328.097a2.51 2.51 0 0 0 1.521-.025 3.018 3.018 0 0 0 1.32-.9ZM65.179 12.473c-.014-.008-.007-.033.019-.075.026-.04.046-.057.06-.048.212.137.377.219.495.246a.33.33 0 0 0 .31-.076c.096-.074.213-.218.349-.43l3.056-4.767c.132-.206.212-.368.24-.486a.367.367 0 0 0-.07-.321c-.07-.103-.2-.216-.392-.34-.02-.013-.018-.04.009-.081.026-.042.05-.056.07-.042l.486.328c.293.207.532.37.716.49.185.119.44.273.763.462l.53.327c.015.01.008.034-.018.075-.027.042-.047.058-.06.049-.213-.137-.38-.216-.502-.236a.366.366 0 0 0-.31.076 2.504 2.504 0 0 0-.349.43l-3.023 4.716c-.172.267-.248.47-.23.608.022.13.14.264.352.401l.287.185c.555.357 1.097.532 1.625.523.54-.012 1.091-.209 1.656-.592a.083.083 0 0 1 .065.013c.02.013.036.033.048.06.016.02.02.037.011.05-.415.528-.78 1.036-1.092 1.523-.066.103-.15.121-.253.055l-4.848-3.123ZM74.82 20.14c-.01-.013.003-.035.04-.067.036-.032.06-.042.07-.03.166.192.299.314.399.367.105.06.214.068.327.024.113-.044.264-.149.455-.315l4.272-3.71c.179-.155.295-.288.35-.4a.368.368 0 0 0 .032-.336c-.038-.118-.134-.267-.289-.446-.01-.012 0-.037.032-.075.037-.032.063-.04.08-.02l.39.47c.222.282.405.506.549.672.16.185.368.414.626.687l.4.445c.012.013-.001.035-.038.067s-.061.042-.072.03c-.16-.186-.295-.305-.407-.36a.404.404 0 0 0-.336-.015c-.108.05-.26.155-.456.315l-4.253 3.694c-.185.16-.307.293-.366.399a.45.45 0 0 0-.025.345c.044.113.143.259.298.438.01.012-.003.034-.04.066s-.06.042-.071.03a12.155 12.155 0 0 1-.39-.47l-.575-.684-.577-.648a12.79 12.79 0 0 1-.425-.473ZM81.738 31.042c-.375-.824-.543-1.613-.501-2.367a3.71 3.71 0 0 1 .681-1.98 4.143 4.143 0 0 1 1.67-1.343 3.499 3.499 0 0 1 2.054-.294 3.887 3.887 0 0 1 1.92.883c.584.477 1.048 1.094 1.393 1.851.159.349.288.72.387 1.115.106.39.162.71.168.958-.002.073-.015.124-.038.152a.582.582 0 0 1-.151.11l-1.415.755c-.03.013-.056.003-.08-.03-.025-.034-.03-.063-.014-.088.445-.518.726-1.059.844-1.624a2.614 2.614 0 0 0-.192-1.688c-.328-.72-.838-1.163-1.532-1.33-.686-.17-1.466-.056-2.34.344-.762.35-1.375.791-1.838 1.326-.464.535-.75 1.105-.858 1.711a3.018 3.018 0 0 0 .242 1.8c.122.267.252.454.39.56.146.105.32.142.521.112.212-.025.492-.117.84-.277.363-.166.61-.32.743-.46a.591.591 0 0 0 .155-.516c-.03-.201-.134-.499-.313-.892-.02-.045 0-.08.058-.108a.134.134 0 0 1 .061-.014c.03.005.047.014.054.03.243.632.458 1.153.644 1.56.176.387.37.782.581 1.188.014.03-.004.06-.052.091-.049.031-.08.032-.093.002-.047-.122-.11-.183-.19-.182-.08.001-.24.056-.476.164l-.755.346a5.43 5.43 0 0 0-.685.353c-.123.084-.21.137-.262.16-.045.021-.078.027-.1.02-.017-.001-.044-.02-.08-.058-.64-.855-1.12-1.635-1.441-2.34ZM85.448 45.13c.003.017-.02.028-.069.035-.048.008-.073.003-.076-.013a10.49 10.49 0 0 1-.067-.56l-.119-.91-.137-.87c-.03-.152-.064-.361-.102-.628-.003-.016.02-.032.067-.047.048-.007.074.002.078.026.036.25.081.425.137.525a.331.331 0 0 0 .26.184c.118.017.302.007.551-.03l2.78-.4-.5-3.489-2.78.401c-.242.035-.416.08-.523.137a.45.45 0 0 0-.207.277c-.024.12-.019.3.016.542.003.024-.02.04-.068.047-.048.007-.074-.002-.077-.026a12.075 12.075 0 0 1-.077-.62l-.116-.898-.132-.834a12.24 12.24 0 0 1-.1-.603c-.003-.025.02-.04.068-.047.049-.007.074.001.078.026.035.242.08.413.135.512a.331.331 0 0 0 .26.185c.12.024.304.018.553-.018l5.596-.806c.34-.041.554-.122.644-.242.097-.12.123-.347.075-.678-.003-.024.019-.04.067-.047.049-.007.075.002.078.026l.071.583c.035.358.068.646.1.864.03.218.081.511.15.88l.101.616c.003.017-.02.028-.069.035-.048.007-.073.002-.076-.014-.034-.242-.084-.416-.149-.522a.404.404 0 0 0-.287-.194 2.42 2.42 0 0 0-.54.016l-2.453.354.499 3.476 2.453-.353c.346-.05.568-.136.666-.257.099-.113.125-.335.077-.666-.002-.017.02-.032.067-.047.049-.007.075.001.078.026l.073.595c.035.357.069.65.101.875.032.218.08.504.148.857l.1.616c.004.024-.019.04-.067.047-.048.007-.074-.002-.078-.026-.034-.242-.084-.417-.149-.523a.367.367 0 0 0-.26-.185 2.156 2.156 0 0 0-.544-.008l-5.596.807c-.233.033-.407.083-.521.149a.495.495 0 0 0-.204.301c-.023.127-.017.308.016.542ZM84.954 50.297c.003-.025.03-.033.078-.026.048.007.071.018.069.034-.049.34-.064.589-.046.748.017.167.078.287.183.36.113.074.29.129.531.163l5.596.807c.28.048.471.039.572-.03.108-.066.178-.213.21-.439l.023-.157c.04-.275-.01-.558-.15-.85a2.24 2.24 0 0 0-.59-.777 2.15 2.15 0 0 0-.883-.474c-.016-.002-.021-.023-.015-.064a.233.233 0 0 1 .022-.07c.019-.015.031-.017.038-.008.3.085 1.094.26 2.38.529.023.003.032.025.027.065a.136.136 0 0 1-.021.06c-.012.022-.025.033-.042.03-.169-.024-.28.145-.332.509-.117.65-.247 1.468-.388 2.453a51.93 51.93 0 0 0-.19 1.494l-.11.85c-.038.266-.045.463-.023.59a.336.336 0 0 0 .21.264c.02.02.025.05.011.089-.007.048-.026.066-.057.053a60.578 60.578 0 0 0-1.331-.266c-.528-.1-.886-.16-1.072-.179-.024-.003-.033-.03-.026-.078.01-.064.03-.094.062-.09.33.048.648.015.952-.098.303-.104.558-.278.765-.52.207-.234.332-.504.376-.811l.022-.157c.023-.162.02-.282-.01-.36-.03-.07-.094-.121-.188-.151a3.756 3.756 0 0 0-.454-.103l-5.573-.79c-.25-.036-.434-.038-.554-.006-.121.04-.213.134-.275.282-.062.147-.118.395-.168.742-.004.024-.03.033-.078.026-.048-.007-.07-.023-.067-.047.043-.299.08-.532.113-.7l.17-1.101.137-1.044c.018-.178.05-.43.096-.752ZM76.445 71.008c.01-.012.035-.002.071.03.037.032.05.054.04.066-.165.191-.267.34-.306.447a.367.367 0 0 0 .024.328c.059.106.184.241.375.407l4.272 3.71c.178.155.327.252.445.29.119.049.23.044.336-.016.112-.054.245-.17.4-.35.01-.012.036-.005.079.02.037.033.047.058.031.077l-.409.454c-.247.26-.442.474-.586.64a22.1 22.1 0 0 0-.59.72l-.382.46c-.01.013-.034.003-.071-.029-.037-.032-.05-.054-.04-.067.16-.184.26-.336.297-.454a.406.406 0 0 0-.033-.337c-.064-.099-.19-.235-.375-.406l-4.254-3.695c-.184-.16-.333-.262-.446-.306a.448.448 0 0 0-.344.025c-.105.06-.236.178-.39.357-.01.013-.034.003-.071-.03-.037-.031-.05-.053-.04-.066.165-.191.302-.343.41-.454l.592-.667.558-.665c.096-.123.231-.285.407-.489ZM67.712 88.01c-.02.013-.044 0-.07-.042-.027-.041-.03-.068-.01-.082.281-.18.45-.424.504-.731.048-.302-.03-.62-.234-.954l-3.396-5.319c-.02-.016-.014-.044.018-.085a.28.28 0 0 1 .103-.11c.069-.044.127-.052.174-.024l7.775 2.643-2.636-4.135c-.205-.334-.454-.542-.748-.624-.295-.081-.586-.03-.873.156-.028.017-.055.005-.081-.036-.027-.04-.026-.07.001-.088.192-.123.341-.215.448-.274l.654-.407.61-.407c.112-.082.274-.191.486-.328.028-.017.055-.006.081.035.026.042.026.071-.002.089-.287.185-.451.427-.493.725-.047.302.03.62.235.954l2.888 4.526c.339.092.616.131.83.12.209-.009.395-.066.559-.171.014-.01.034.007.06.048.027.041.033.066.02.075l-.562.347a8.823 8.823 0 0 0-.448.274c-.185.12-.337.222-.456.308-.126.091-.209.15-.25.176-.055.035-.105.048-.15.038a.619.619 0 0 1-.212-.081 5.746 5.746 0 0 0-.464-.181l-6.166-2.08 2.303 3.637c.204.334.453.542.748.624.287.086.578.034.873-.155.027-.018.054-.006.08.035.027.041.026.07-.001.088l-.407.248c-.283.163-.517.304-.702.423-.143.092-.34.23-.592.41l-.497.335ZM43.465 87.297a.083.083 0 0 1-.062.025.131.131 0 0 1-.073-.025c-.024-.008-.032-.016-.024-.024.081-.53.122-1.11.122-1.738 0-.065.012-.114.037-.147.024-.024.073-.036.146-.036h5.568c.032 0 .048.024.048.073 0 .049-.012.073-.036.073-.244 0-.42.02-.525.062a.332.332 0 0 0-.22.232c-.04.114-.061.298-.061.55v5.667c0 .244.02.424.061.538.04.114.118.192.232.233.114.048.285.073.513.073.024 0 .04.024.049.073 0 .05-.009.074-.025.074h-5.262c-.065 0-.098-.037-.098-.11l-.024-1.616c0-.024.024-.036.073-.036.04 0 .065.008.073.024.139.457.391.816.757 1.077.358.27.786.404 1.282.404h.232c.253 0 .436-.02.55-.061a.296.296 0 0 0 .207-.196c.033-.098.053-.261.061-.49V89.5H45.54c-.415 0-.72.073-.916.22-.195.147-.293.384-.293.71 0 .033-.028.049-.085.049-.057 0-.086-.02-.086-.061l.013-.673a10.356 10.356 0 0 0 0-1.003l-.013-.662c0-.04.025-.06.074-.06a.23.23 0 0 1 .073.011c.016.017.024.033.024.05 0 .35.11.615.33.795.212.188.513.281.904.281h1.501v-2.765c0-.327-.049-.539-.146-.637-.106-.097-.322-.146-.647-.146h-.342c-.53 0-1.014.15-1.453.452-.44.31-.777.722-1.014 1.236ZM29.141 89.9c-.04-.012-.052-.041-.038-.088.014-.047.04-.065.08-.054.288.086.566.078.833-.022.259-.102.557-.38.893-.834l3.963-5.274c.035-.033.1-.035.193-.007.04.011.076.03.11.058.037.019.057.038.06.055l1.056 7.211c.05.355.123.61.221.767.096.164.254.278.472.343.024.006.029.033.015.08-.014.047-.029.069-.044.064l-.618-.195a12.965 12.965 0 0 0-.614-.206 25.377 25.377 0 0 0-1.014-.273l-.578-.157c-.038-.011-.051-.04-.037-.088.013-.047.04-.064.079-.053.437.129.691.072.762-.17.026-.087.029-.213.01-.38l-.782-5.498-2.854 3.879a1.398 1.398 0 0 0-.225.418.689.689 0 0 0 .105.643c.138.194.356.335.652.422.032.01.04.037.027.084-.014.047-.037.066-.068.057l-.594-.188c-.339-.116-.649-.216-.93-.299a9.425 9.425 0 0 0-.593-.149l-.542-.147ZM21.924 79.262a.083.083 0 0 1-.065-.013.132.132 0 0 1-.048-.06c-.016-.02-.019-.031-.008-.034.355-.402.702-.867 1.04-1.395.036-.055.072-.09.11-.104.034-.007.082.009.144.048l4.683 3.017c.028.018.028.047.002.089-.027.04-.05.055-.07.041-.206-.132-.364-.21-.475-.233a.331.331 0 0 0-.31.077c-.096.074-.213.217-.349.43l-3.056 4.767c-.132.205-.212.368-.24.486a.367.367 0 0 0 .07.32c.07.104.2.217.392.34.02.014.021.043.002.089-.027.04-.047.057-.06.048l-4.427-2.851c-.055-.035-.063-.084-.023-.146l.85-1.372c.014-.02.041-.017.082.009.034.022.05.042.049.06-.13.46-.112.898.055 1.316.157.42.443.766.861 1.035l.195.125c.213.137.378.22.495.247.107.03.2.012.28-.053.08-.064.186-.19.316-.378l1.347-2.1-1.284-.827c-.35-.225-.646-.329-.89-.311-.243.017-.453.164-.629.438-.017.027-.05.026-.098-.005-.048-.03-.061-.063-.039-.098l.373-.56a10.194 10.194 0 0 0 .541-.844l.347-.562c.022-.034.053-.038.094-.012.021.013.04.03.055.05.005.023.003.04-.005.055-.19.295-.24.577-.152.847.077.273.28.515.608.727l1.264.813 1.491-2.326c.176-.275.25-.48.22-.615-.036-.14-.191-.298-.465-.474l-.287-.185a2.511 2.511 0 0 0-1.467-.407 3.014 3.014 0 0 0-1.52.491ZM14.088 68.734c-.016-.019-.006-.044.031-.076.032-.038.058-.045.08-.02l1.31 1.516c.128.148.106.62-.066 1.418-.184.797-.55 1.887-1.099 3.27.193.135.38.308.56.517.027.031.056.077.086.137l2.187-1.9c.183-.148.308-.278.374-.39a.45.45 0 0 0 .025-.344c-.05-.12-.154-.272-.314-.457-.021-.024-.014-.053.023-.085.032-.038.058-.045.08-.02.18.21.316.372.406.489l.582.692.61.686c.112.118.26.281.44.491.022.025.017.056-.015.094-.037.032-.066.036-.087.011-.176-.203-.322-.34-.438-.413a.403.403 0 0 0-.353-.033c-.124.043-.278.139-.462.287l-4.272 3.71c-.184.16-.304.297-.358.409a.368.368 0 0 0-.015.337c.043.124.147.282.312.474.021.024.014.052-.023.084-.037.033-.066.036-.088.012l-.414-.498c-.222-.282-.408-.51-.557-.682a9.108 9.108 0 0 0-.629-.653c-.183-.186-.3-.31-.354-.372-.539-.623-.84-1.176-.903-1.661-.069-.49.078-.894.441-1.209.265-.23.597-.362.998-.397.395-.041.801.011 1.218.157.377-1.17.65-2.12.817-2.848.156-.729.226-1.308.211-1.737-.027-.43-.142-.762-.344-.996Zm.644 6.986a1.483 1.483 0 0 0-.205-.292c-.351-.407-.688-.617-1.01-.628-.328-.018-.701.155-1.12.518-.437.38-.682.744-.736 1.093-.065.348.01.645.223.892.143.166.254.27.332.31.072.046.159.046.26.001.09-.045.239-.153.447-.323l1.809-1.571ZM2.689 62.602c-.017-.037-.004-.066.04-.086.045-.02.076-.012.093.025.118.26.331.463.64.609.297.142.705.233 1.225.273l2.617.147 2.588-1.184c.23-.105.388-.2.474-.285a.408.408 0 0 0 .1-.341c-.017-.136-.087-.337-.208-.604-.014-.03.001-.055.046-.075.044-.02.073-.016.087.014.118.26.206.462.262.606l.39.884.432.92c.075.144.17.343.285.595.014.03-.002.055-.046.075-.045.02-.074.016-.087-.014-.122-.267-.23-.455-.324-.564a.447.447 0 0 0-.34-.155c-.127-.004-.3.048-.518.157l-2.427 1.125-1.882 3c-.193.303-.315.565-.366.786a.832.832 0 0 0 .03.565c.013.03-.003.055-.047.075-.041.028-.067.03-.077.009l-.253-.584c-.113-.29-.2-.5-.261-.634-.085-.185-.22-.46-.403-.825l-.27-.562c-.01-.022 0-.04.03-.054a.131.131 0 0 1 .076-.008c.018 0 .03.008.038.023.088.193.167.327.237.403.067.068.133.087.2.056.067-.03.135-.106.205-.228l1.793-2.839-2.509-.116c-.178 0-.327.029-.445.083-.17.078-.28.2-.33.366-.053.159-.03.346.068.56.013.03-.002.056-.047.076-.044.02-.072.02-.082-.003l-.262-.606a25.416 25.416 0 0 0-.369-.867 5.343 5.343 0 0 0-.22-.424l-.183-.374ZM3.876 39.56c.18-.674.484-1.191.913-1.55.422-.359.907-.5 1.454-.42.42.06.78.24 1.083.539.302.299.523.681.662 1.146.13.464.157.967.08 1.508a9.561 9.561 0 0 1-.148.77 18.78 18.78 0 0 0-.085.42c-.031.16-.061.341-.09.543l-.113.874c-.014.155-.04.37-.08.644-.003.016-.028.02-.076.014-.049-.007-.072-.019-.07-.035.034-.234.039-.41.015-.53a.447.447 0 0 0-.205-.289c-.106-.065-.28-.114-.522-.15L1.1 42.24c-.234-.034-.41-.035-.53-.003a.367.367 0 0 0-.277.208c-.064.106-.113.276-.147.51-.002.016-.027.02-.076.014-.048-.007-.071-.019-.069-.035l.104-.64c.067-.353.117-.638.148-.856.032-.226.054-.462.064-.708.004-.082.013-.204.028-.367a8.73 8.73 0 0 1 .05-.426c.108-.759.325-1.325.65-1.699.326-.381.743-.535 1.25-.462.387.056.719.235.996.539.277.303.473.72.586 1.246Zm-3.267.593c-.034.234 0 .404.1.509.1.105.303.18.609.224l2.296.33.083-.495c.063-.436-.046-.793-.327-1.073-.287-.289-.673-.468-1.156-.537-.46-.066-.826-.008-1.099.175-.28.174-.448.463-.506.867Zm7.163.797c.082-.573.002-1.013-.242-1.32-.244-.308-.644-.501-1.2-.581-.62-.09-1.134-.007-1.54.248-.407.254-.656.7-.747 1.338a7.424 7.424 0 0 0-.067.634l2.913.42c.282.04.487.016.615-.073.128-.088.217-.31.268-.666ZM10.58 31.507c-.006.015-.031.012-.076-.008-.044-.02-.063-.038-.056-.053.104-.23.16-.402.167-.515a.367.367 0 0 0-.114-.308c-.087-.085-.245-.18-.475-.285l-5.142-2.353c-.215-.099-.384-.15-.508-.152a.366.366 0 0 0-.318.11c-.092.083-.187.232-.285.448-.007.015-.034.016-.082.003-.044-.02-.062-.042-.051-.064l.264-.552c.164-.32.291-.58.383-.78.101-.223.222-.508.363-.856l.237-.55c.007-.015.033-.013.077.008.044.02.063.038.057.052-.102.223-.154.396-.157.52a.406.406 0 0 0 .126.314c.09.077.248.172.474.284l5.12 2.344c.222.101.394.157.514.168a.448.448 0 0 0 .324-.121c.084-.087.175-.238.273-.453.007-.015.033-.012.077.008s.063.038.057.053c-.105.23-.194.414-.265.551l-.382.808-.348.795a12.75 12.75 0 0 1-.253.584ZM15.909 22.408c-.017.018-.043.011-.08-.02-.037-.033-.05-.055-.04-.067.225-.26.372-.46.442-.604.076-.15.09-.284.04-.402-.054-.124-.174-.266-.358-.426l-4.273-3.71c-.21-.193-.375-.288-.496-.285-.127-.003-.265.082-.415.255l-.103.12c-.182.21-.293.475-.333.796-.047.316-.02.64.078.975.093.329.255.62.487.876.012.01.005.031-.022.062a.229.229 0 0 1-.057.047c-.023.002-.035-.003-.036-.014-.207-.234-.779-.812-1.716-1.734-.018-.016-.014-.04.012-.07a.136.136 0 0 1 .05-.038c.022-.014.039-.015.051-.004.13.112.314.03.554-.248.45-.483 1-1.101 1.65-1.853.294-.34.615-.724.966-1.154l.55-.655c.176-.204.288-.365.338-.484a.337.337 0 0 0-.033-.336c-.008-.029.005-.055.037-.08.032-.038.058-.043.077-.015.255.254.58.569.977.945.39.371.658.615.805.732.018.016.011.042-.02.08-.043.049-.077.062-.101.041a1.913 1.913 0 0 0-.854-.433 1.735 1.735 0 0 0-.924.023c-.3.085-.55.244-.754.479l-.103.12c-.107.123-.169.226-.186.308-.012.076.014.152.077.229.057.071.166.182.326.332l4.262 3.685c.19.166.345.267.463.305.124.032.252.003.384-.088.132-.09.312-.268.541-.533.016-.019.043-.012.08.02.037.032.047.057.031.076a15.99 15.99 0 0 1-.473.528l-.737.834-.678.803c-.111.141-.273.335-.486.582ZM26.768 10.64a.083.083 0 0 1 .039-.053.131.131 0 0 1 .075-.02c.024-.005.036-.003.033.008.218.49.496 1 .835 1.528.035.055.051.103.048.144-.007.034-.042.07-.103.11l-4.684 3.017c-.027.017-.054.006-.08-.036-.027-.04-.03-.068-.01-.081.206-.133.342-.244.41-.336a.333.333 0 0 0 .059-.315c-.028-.118-.11-.283-.246-.496l-3.056-4.766c-.132-.206-.246-.346-.342-.42a.365.365 0 0 0-.32-.07c-.123.02-.28.092-.472.216-.02.013-.047.001-.08-.035-.027-.042-.033-.067-.02-.075l4.428-2.852c.054-.035.102-.022.141.04l.892 1.345c.013.021 0 .045-.042.071-.034.022-.059.028-.075.02a1.98 1.98 0 0 0-1.217-.497c-.447-.032-.879.086-1.297.355l-.195.126c-.212.137-.355.253-.429.35a.297.297 0 0 0-.069.276c.025.1.096.249.213.445l1.346 2.1 1.284-.827c.35-.225.567-.452.652-.681.085-.23.04-.481-.137-.756-.017-.027-.002-.057.046-.087.048-.031.083-.03.105.005l.353.573a10.327 10.327 0 0 0 .541.844l.367.549c.022.034.012.065-.03.091a.227.227 0 0 1-.067.03c-.023-.005-.038-.015-.047-.028-.19-.296-.425-.459-.707-.49-.279-.044-.583.04-.912.252l-1.263.814 1.492 2.326c.176.275.331.427.466.456.142.025.35-.05.624-.227l.288-.185a2.52 2.52 0 0 0 .978-1.168 3.033 3.033 0 0 0 .186-1.59Z"
    fill="#BB2339" />
</svg>